
<svg width="55px" height="65px" viewBox="166 22 55 65" version="1.1" xmlns="http://www.w3.org/2000/svg" xmlns:xlink="http://www.w3.org/1999/xlink">
    <!-- Generator: Sketch 39.1 (31720) - http://www.bohemiancoding.com/sketch -->
    <desc>Created with Sketch.</desc>
    <defs></defs>
    <g id="cnodejs_light" stroke="none" stroke-width="1" fill="none" fill-rule="evenodd" transform="translate(166.000000, 22.000000)">
        <path d="M27.1959439,64.472 C26.3770841,64.472 25.5601308,64.247 24.843271,63.812 L17.3572336,59.166 C16.24,58.51 16.7843178,58.278 17.1541869,58.143 C18.6441495,57.6 18.9472897,57.475 20.5392523,56.529 C20.7041682,56.43 20.9243738,56.467 21.0959626,56.574 L26.8470467,60.156 C27.0558131,60.277 27.3484673,60.277 27.541028,60.156 L49.9638692,46.579 C50.1726355,46.454 50.3051402,46.203 50.3051402,45.943 L50.3051402,18.796 C50.3051402,18.531 50.1716822,18.283 49.9581495,18.149 L27.5438879,4.584 C27.337028,4.457 27.0615327,4.457 26.8537196,4.584 L4.44803738,18.152 C4.22973832,18.283 4.09246729,18.538 4.09246729,18.796 L4.09246729,45.942 C4.09246729,46.202 4.22973832,46.448 4.44613084,46.571 L10.5871028,50.293 C13.9197383,52.041 15.9616449,49.983 15.9616449,47.914 L15.9616449,21.114 C15.9616449,20.735 16.2523925,20.436 16.612729,20.436 L19.4563364,20.436 C19.8119065,20.436 20.1064673,20.735 20.1064673,21.114 L20.1064673,47.914 C20.1064673,52.58 17.6842056,55.256 13.4669346,55.256 C12.170486,55.256 11.150486,55.256 8.30211215,53.784 L2.42233645,50.233 C0.969551402,49.351 0.0706168224,47.705 0.0706168224,45.942 L0.0706168224,18.796 C0.0706168224,17.033 0.968598131,15.386 2.42233645,14.509 L24.8442243,0.917 C26.2636449,0.076 28.1501682,0.076 29.5571963,0.917 L51.9771776,14.509 C53.4299626,15.391 54.3336636,17.033 54.3336636,18.796 L54.3336636,45.942 C54.3336636,47.705 53.4309159,49.345 51.9771776,50.233 L29.5571963,63.812 C28.8403364,64.247 28.0252897,64.472 27.1959439,64.472" id="Shape" fill="#eee"></path>
        <path d="M34.1224112,45.771 C24.3094393,45.771 22.2551402,41.046 22.2551402,37.084 C22.2551402,36.707 22.5439813,36.406 22.9033645,36.406 L25.8022617,36.406 C26.1254206,36.406 26.3961495,36.649 26.4457196,36.981 C26.883271,40.078 28.1882991,41.639 34.1233645,41.639 C38.8458692,41.639 40.857271,40.518 40.857271,37.889 C40.857271,36.374 40.287215,35.249 32.9460748,34.495 C26.8098692,33.857 23.0168037,32.435 23.0168037,27.287 C23.0168037,22.542 26.8298879,19.711 33.2234766,19.711 C40.4063738,19.711 43.9601682,22.326 44.4110654,27.938 C44.4282243,28.131 44.3614953,28.317 44.2385234,28.461 C44.1155514,28.596 43.9449159,28.678 43.7637944,28.678 L40.8544112,28.678 C40.5522243,28.678 40.2862617,28.453 40.2242991,28.147 C39.5274579,24.889 37.828729,23.848 33.2225234,23.848 C28.0653271,23.848 27.4657196,25.733 27.4657196,27.145 C27.4657196,28.856 28.1730467,29.354 35.1366916,30.321 C42.0278879,31.276 45.3004673,32.63 45.3004673,37.711 C45.3004673,42.836 41.2261869,45.771 34.1224112,45.771" id="Shape" fill="#eee"></path>
    </g>
</svg>